<svg xmlns="http://www.w3.org/2000/svg" xmlns:xlink="http://www.w3.org/1999/xlink" width="345" height="230"><linearGradient id="a" x1="172.5" x2="172.5" y1="230" y2="0" gradientUnits="userSpaceOnUse"><stop offset="0" stop-color="#134d91"/><stop offset=".122" stop-color="#1d58a3"/><stop offset=".366" stop-color="#3776d3"/><stop offset=".55" stop-color="#4c8ffb"/></linearGradient><path fill="url(#a)" d="M0 0h345v230H0z"/><path fill="#0FF" d="M264.566 153.5H80.433c-2.812 0-5.1-2.318-5.1-5.167v-36.665c0-2.85 2.288-5.168 5.1-5.168h184.133c2.812 0 5.1 2.318 5.1 5.168v36.665c0 2.849-2.288 5.167-5.1 5.167zm-184.133-46c-2.261 0-4.1 1.87-4.1 4.168v36.665c0 2.298 1.839 4.167 4.1 4.167h184.133c2.261 0 4.1-1.869 4.1-4.167v-36.665c0-2.298-1.839-4.168-4.1-4.168H80.433z"/><g><g><g fill="#0FF"><path d="M106.471 85.849l7.711-6.642-7.711-6.645M106.471 77.36H92.429v3.73h14.042"/></g></g><g fill="#0FF"><path d="M88.237 90.762h14.042v-3.729H88.237M88.237 82.272l-7.711 6.645 7.711 6.645"/></g></g><path fill="#0FF" d="M236.753 80.917l7.756 9 7.758-9"/></svg>